<?xml version="1.0" encoding="UTF-8" standalone="no"?>
<!DOCTYPE svg PUBLIC "-//W3C//DTD SVG 1.1//EN" "http://www.w3.org/Graphics/SVG/1.1/DTD/svg11.dtd">
<svg width="100%" height="100%" viewBox="0 0 298 211" version="1.1" xmlns="http://www.w3.org/2000/svg" xmlns:xlink="http://www.w3.org/1999/xlink" xml:space="preserve" xmlns:serif="http://www.serif.com/" style="fill-rule:evenodd;clip-rule:evenodd;stroke-miterlimit:10;">
    <g id="bottom">
        <path d="M78,63.497L67.457,77.955L67.457,77.957C67.363,78.051 67.236,78.104 67.103,78.104L67.104,78.103L30.434,82.873L30.433,82.874C30.211,82.896 29.992,82.939 29.778,83.004L29.779,83.002L15.486,91.262L15.484,91.265C14.849,91.692 13.987,91.525 13.559,90.89C13.558,90.888 13.557,90.887 13.556,90.885L13.558,90.884L0.33,67.953L0.331,67.951C0.178,67.686 0.099,67.385 0.103,67.079L0.104,67.077L0.104,7.603L0.103,7.604C0.103,7.328 0.327,7.104 0.603,7.104L0.604,7.102L20.355,7.102L20.353,7.104C20.63,7.104 20.853,6.88 20.853,6.604L20.856,6.602L20.856,5.352L20.853,5.354C20.853,5.078 21.077,4.854 21.353,4.854L21.354,4.852L39.354,4.852L39.353,4.854C39.629,4.854 39.853,4.63 39.853,4.354L39.855,4.351L39.855,2.852L39.853,2.853C39.853,2.578 40.077,2.354 40.353,2.354L40.355,2.352L58.354,2.352L58.353,2.354L58.353,2.354C58.63,2.354 58.853,2.13 58.853,1.854L58.854,1.852L58.854,0.602L58.853,0.604C58.853,0.328 59.077,0.104 59.353,0.104L59.355,0.102L76.355,0.102L76.353,0.104C76.63,0.104 76.853,0.328 76.853,0.604L76.855,0.602L76.855,1.852L76.853,1.854C76.853,2.13 77.077,2.354 77.353,2.354L77.356,2.352L95.354,2.352L95.353,2.354C95.629,2.354 95.853,2.578 95.853,2.853L95.854,2.852L95.854,6.602L95.853,6.604C95.853,6.88 96.077,7.104 96.353,7.104L96.355,7.102L133.355,7.102L133.353,7.104C133.629,7.104 133.853,7.328 133.853,7.604L133.855,7.603L133.855,62.852L133.853,62.854C133.853,63.13 133.629,63.353 133.353,63.353L133.355,63.353L78.354,63.353" style="fill:rgb(26,26,26);fill-rule:nonzero;"/>
    </g>
    <g id="top">
        <path d="M1.583,67.501C1.581,67.502 1.58,67.503 1.578,67.504C0.943,67.932 0.775,68.794 1.203,69.429L1.204,69.429L13.558,90.884L13.556,90.885C13.557,90.887 13.558,90.888 13.559,90.89C13.987,91.525 14.849,91.693 15.484,91.265L15.486,91.262L29.779,83.002L29.778,83.004C29.992,82.939 30.211,82.896 30.433,82.874L30.434,82.873L67.104,78.103L67.103,78.104C67.236,78.104 67.363,78.051 67.457,77.957L67.457,77.955L78.001,63.497L78,63.5C78.094,63.406 78.221,63.353 78.353,63.353L78.354,63.353L133.355,63.353L133.353,63.353C133.629,63.353 133.853,63.13 133.853,62.854L133.855,62.852L133.855,7.603L133.853,7.604C133.853,7.328 133.63,7.104 133.353,7.104L133.355,7.102L96.355,7.102L96.353,7.104C96.077,7.104 95.853,6.88 95.853,6.604L95.854,6.602L95.854,2.852L95.853,2.853C95.853,2.578 95.63,2.354 95.353,2.354L95.354,2.352L77.356,2.352L77.353,2.354C77.077,2.354 76.854,2.13 76.853,1.854L76.855,1.852L76.855,0.602L76.853,0.604C76.853,0.328 76.63,0.104 76.354,0.104L76.355,0.102L59.355,0.102L59.353,0.104C59.077,0.104 58.853,0.328 58.853,0.604L58.854,0.602L58.854,1.852L58.853,1.854C58.853,2.13 58.63,2.354 58.353,2.354L58.354,2.352L40.355,2.352L40.353,2.354C40.077,2.354 39.853,2.578 39.853,2.853L39.855,2.852L39.855,4.351L39.853,4.354C39.853,4.63 39.629,4.854 39.354,4.854L39.354,4.852L21.354,4.852L21.353,4.854C21.077,4.854 20.854,5.078 20.854,5.354L20.856,5.352L20.858,55.913L20.856,55.914C20.848,56.178 20.718,56.424 20.504,56.579L20.505,56.579L1.585,67.498" style="fill:rgb(64,64,64);fill-rule:nonzero;"/>
    </g>
    <g id="key">
        <rect x="117.845" y="9.225" width="14" height="14" style="fill:rgb(26,26,26);"/>
        <rect x="117.845" y="28.225" width="14" height="14" style="fill:rgb(26,26,26);"/>
        <rect x="117.845" y="47.225" width="14" height="14" style="fill:rgb(26,26,26);"/>
        <rect x="98.846" y="9.224" width="14" height="14" style="fill:rgb(26,26,26);"/>
        <rect x="98.846" y="28.224" width="14" height="14" style="fill:rgb(26,26,26);"/>
        <rect x="98.846" y="47.224" width="14" height="14" style="fill:rgb(26,26,26);"/>
        <rect x="79.846" y="4.479" width="14" height="14" style="fill:rgb(26,26,26);"/>
        <rect x="79.846" y="23.479" width="14" height="14" style="fill:rgb(26,26,26);"/>
        <rect x="79.846" y="42.48" width="14" height="14" style="fill:rgb(26,26,26);"/>
        <rect x="60.844" y="2.101" width="14" height="14" style="fill:rgb(26,26,26);"/>
        <rect x="60.844" y="21.101" width="14" height="14" style="fill:rgb(26,26,26);"/>
        <rect x="60.844" y="40.101" width="14" height="14" style="fill:rgb(26,26,26);"/>
        <rect x="41.843" y="4.475" width="14" height="14" style="fill:rgb(26,26,26);"/>
        <rect x="41.843" y="23.475" width="14" height="14" style="fill:rgb(26,26,26);"/>
        <rect x="41.843" y="42.475" width="14" height="14" style="fill:rgb(26,26,26);"/>
        <rect x="22.841" y="6.86" width="14" height="14" style="fill:rgb(26,26,26);"/>
        <rect x="22.841" y="25.86" width="14" height="14" style="fill:rgb(26,26,26);"/>
        <rect x="22.841" y="44.86" width="14" height="14" style="fill:rgb(26,26,26);"/>
        <rect x="51.324" y="62.133" width="14" height="14" style="fill:rgb(26,26,26);"/>
        <path d="M45.935,76.793L32.412,80.417L28.789,66.894L42.312,63.27L45.935,76.793Z" style="fill:rgb(26,26,26);"/>
        <path d="M24.666,78.145L12.542,85.146L5.542,73.022L17.666,66.021L24.666,78.145Z" style="fill:rgb(26,26,26);"/>
    </g>
    <g id="oled">
        <path d="M0.103,7.605L0.103,66.359C0.103,66.744 0.52,66.984 0.853,66.792L19.572,55.989C19.726,55.899 19.822,55.735 19.822,55.556L19.822,7.608C19.822,7.332 19.598,7.108 19.322,7.108L0.603,7.105C0.327,7.105 0.103,7.329 0.103,7.605Z" style="fill:rgb(128,128,128);fill-rule:nonzero;"/>
    </g>
    <g id="oled-screw">
        <path d="M16.074,54.59C16.074,55.197 16.567,55.69 17.174,55.69C17.781,55.69 18.274,55.197 18.274,54.59C18.274,53.983 17.781,53.49 17.174,53.49C16.567,53.49 16.074,53.983 16.074,54.59Z" style="fill:rgb(26,26,26);"/>
        <path d="M1.642,63.111C1.642,63.718 2.135,64.211 2.742,64.211C3.349,64.211 3.842,63.718 3.842,63.111C3.842,62.504 3.349,62.011 2.742,62.011C2.135,62.011 1.642,62.504 1.642,63.111Z" style="fill:rgb(26,26,26);"/>
    </g>
    <g id="screw">
        <path d="M78,63.5C78.094,63.406 78.221,63.353 78.353,63.353" style="fill:rgb(26,26,26);fill-rule:nonzero;"/>
        <circle cx="115.353" cy="44.6" r="1.1" style="fill:rgb(26,26,26);"/>
        <circle cx="115.353" cy="25.85" r="1.1" style="fill:rgb(26,26,26);"/>
        <circle cx="39.353" cy="22.1" r="1.1" style="fill:rgb(26,26,26);"/>
        <circle cx="72.103" cy="61.851" r="1.1" style="fill:rgb(26,26,26);"/>
        <ellipse cx="25.603" cy="69.601" rx="1.1" ry="1.1" style="fill:rgb(26,26,26);"/>
    </g>
</svg>
