<?xml version="1.0" encoding="UTF-8" standalone="no"?>
<!DOCTYPE svg PUBLIC "-//W3C//DTD SVG 1.1//EN" "http://www.w3.org/Graphics/SVG/1.1/DTD/svg11.dtd">
<!-- Created with Vectornator (http://vectornator.io/) -->
<svg height="100%" stroke-miterlimit="10"
  style="fill-rule:nonzero;clip-rule:evenodd;stroke-linecap:round;stroke-linejoin:round;" version="1.1"
  viewBox="0 0 510 350" width="100%" xml:space="preserve" xmlns="http://www.w3.org/2000/svg"
  xmlns:vectornator="http://vectornator.io" xmlns:xlink="http://www.w3.org/1999/xlink">
  <defs />
  <g id="bottom" vectornator:layerName="bottom">
    <path
      d="M448.072 345.212C450.472 346.83 453.729 346.195 455.348 343.796C455.35 343.79 505.345 257.099 505.345 257.099C505.922 256.096 506.218 254.958 506.204 253.8L506.203 29.0132C506.203 27.9705 505.358 27.1238 504.314 27.1238L429.667 27.1238C428.623 27.1238 427.778 26.2771 427.778 25.2345L427.778 20.5091C427.778 19.4664 426.933 18.6198 425.889 18.6198L357.857 18.62C356.814 18.62 355.967 17.7733 355.967 16.7306L355.962 16.72L355.967 11.06C355.967 10.0173 355.121 9.17197 354.078 9.17064L286.046 9.17058C285.002 9.17058 284.156 8.32391 284.156 7.28124L284.156 2.55745C284.156 1.51345 283.311 0.666783 282.267 0.666783L218.014 0.666743C216.97 0.666743 216.125 1.51341 216.125 2.55741L216.124 7.28132C216.124 8.32532 215.279 9.17198 214.235 9.17065L146.204 9.17065C145.16 9.17198 144.314 10.0173 144.314 11.06L144.315 25.2344C144.313 26.2784 143.468 27.1238 142.424 27.1238L2.58199 27.1238C1.53799 27.1238 0.692656 27.9704 0.692656 29.0131L0.692122 237.832C0.692122 238.876 1.53879 239.722 2.58146 239.722L210.456 239.722C210.957 239.722 211.437 239.92 211.792 240.276L251.639 294.917C251.994 295.271 252.474 295.47 252.975 295.47L391.574 313.5C392.411 313.582 393.24 313.746 394.047 313.99L448.072 345.212Z"
      fill="#f1d244" fill-rule="nonzero" opacity="1" stroke="none" />
  </g>
  <g id="top" vectornator:layerName="top">
    <path
      d="M429.1 214.116C428.291 213.531 427.798 212.603 427.768 211.603L427.777 20.5092C427.779 19.4665 426.932 18.6199 425.888 18.6199L357.857 18.6199C356.814 18.6199 355.968 17.7732 355.968 16.7305L355.968 11.06C355.968 10.0173 355.121 9.17197 354.078 9.17064L286.044 9.16544L286.046 9.17066C285.002 9.17066 284.156 8.32399 284.156 7.28133L284.156 2.55615C284.156 1.51348 283.311 0.666814 282.267 0.666814L218.014 0.666743C216.97 0.666743 216.125 1.51341 216.125 2.55608L216.125 7.28132C216.125 8.32532 215.279 9.17198 214.235 9.17065L146.203 9.17065C145.161 9.17198 144.314 10.0173 144.314 11.06L144.315 25.2344C144.313 26.2784 143.468 27.1237 142.424 27.1237L2.58214 27.1237C1.53814 27.1237 0.692806 27.9704 0.691473 29.013L0.691474 237.832C0.691474 238.876 1.53814 239.721 2.58214 239.721L210.456 239.721C210.957 239.721 211.437 239.92 211.792 240.276L251.639 294.917C251.994 295.271 252.474 295.47 252.975 295.47L391.574 313.5C392.411 313.582 393.24 313.744 394.047 313.99L448.072 345.212C450.472 346.83 453.729 346.195 455.346 343.796C455.35 343.79 502.047 262.682 502.047 262.682C503.664 260.282 503.03 257.025 500.63 255.408C500.624 255.404 429.1 214.116 429.1 214.116Z"
      fill="#eb493a" fill-rule="nonzero" opacity="1" stroke="none" />
  </g>
  <g id="screw" vectornator:layerName="screw">
    <path
      d="M74.7709 97.978C74.7709 100.274 72.9096 102.135 70.6136 102.135C68.3176 102.135 66.4563 100.274 66.4563 97.978C66.4563 95.6806 68.3176 93.8206 70.6136 93.8206C72.9096 93.8206 74.7709 95.6806 74.7709 97.978Z"
      fill="#60cf4d" fill-rule="nonzero" opacity="1" stroke="none" />
    <path
      d="M70.6133 164.686C72.9093 164.686 74.7707 166.548 74.7707 168.844C74.7707 171.14 72.9093 173.001 70.6133 173.001C68.3173 173.001 66.456 171.14 66.456 168.844C66.456 166.548 68.3173 164.686 70.6133 164.686Z"
      fill="#60cf4d" fill-rule="nonzero" opacity="1" stroke="none" />
    <path
      d="M357.857 79.6472C360.154 79.6472 362.014 81.5085 362.014 83.8045C362.014 86.1019 360.154 87.9619 357.857 87.9619C355.561 87.9619 353.7 86.1019 353.7 83.8045C353.7 81.5085 355.561 79.6472 357.857 79.6472Z"
      fill="#60cf4d" fill-rule="nonzero" opacity="1" stroke="none" />
    <path
      d="M234.078 229.884C236.374 229.884 238.236 231.746 238.236 234.042C238.236 236.338 236.374 238.198 234.078 238.198C231.781 238.198 229.921 236.338 229.921 234.042C229.921 231.746 231.781 229.884 234.078 229.884Z"
      fill="#60cf4d" fill-rule="nonzero" opacity="1" stroke="none" />
    <path
      d="M409.826 259.175C412.123 259.175 413.983 261.036 413.983 263.332C413.983 265.629 412.123 267.489 409.826 267.489C407.53 267.489 405.668 265.629 405.668 263.332C405.668 261.036 407.53 259.175 409.826 259.175Z"
      fill="#60cf4d" fill-rule="nonzero" opacity="1" stroke="none" />
  </g>
  <g id="key" vectornator:layerName="key">
    <path d="M61.1976 88.0555L8.28429 88.0555L8.28429 35.1421L61.1976 35.1421L61.1976 88.0555Z" fill="#60cf4d"
      fill-rule="nonzero" opacity="1" stroke="none" />
    <path d="M61.1976 159.866L8.28428 159.866L8.28428 106.953L61.1976 106.953L61.1976 159.866Z" fill="#60cf4d"
      fill-rule="nonzero" opacity="1" stroke="none" />
    <path d="M61.1976 231.677L8.28428 231.677L8.28428 178.763L61.1976 178.763L61.1976 231.677Z" fill="#60cf4d"
      fill-rule="nonzero" opacity="1" stroke="none" />
    <path d="M133.002 88.0528L80.0882 88.0528L80.0882 35.1394L133.002 35.1394L133.002 88.0528Z" fill="#60cf4d"
      fill-rule="nonzero" opacity="1" stroke="none" />
    <path d="M133.002 159.863L80.0882 159.863L80.0882 106.95L133.002 106.95L133.002 159.863Z" fill="#60cf4d"
      fill-rule="nonzero" opacity="1" stroke="none" />
    <path d="M133.002 231.674L80.0882 231.674L80.0882 178.761L133.002 178.761L133.002 231.674Z" fill="#60cf4d"
      fill-rule="nonzero" opacity="1" stroke="none" />
    <path d="M204.814 70.1195L151.9 70.1195L151.9 17.2048L204.814 17.2048L204.814 70.1195Z" fill="#60cf4d"
      fill-rule="nonzero" opacity="1" stroke="none" />
    <path d="M204.814 141.931L151.9 141.931L151.9 89.0168L204.814 89.0168L204.814 141.931Z" fill="#60cf4d"
      fill-rule="nonzero" opacity="1" stroke="none" />
    <path d="M204.814 213.741L151.9 213.741L151.9 160.827L204.814 160.827L204.814 213.741Z" fill="#60cf4d"
      fill-rule="nonzero" opacity="1" stroke="none" />
    <path d="M276.632 61.1288L223.719 61.1288L223.719 8.21415L276.632 8.21415L276.632 61.1288Z" fill="#60cf4d"
      fill-rule="nonzero" opacity="1" stroke="none" />
    <path d="M276.632 132.939L223.719 132.939L223.719 80.0261L276.632 80.0261L276.632 132.939Z" fill="#60cf4d"
      fill-rule="nonzero" opacity="1" stroke="none" />
    <path d="M276.632 204.75L223.719 204.75L223.719 151.837L276.632 151.837L276.632 204.75Z" fill="#60cf4d"
      fill-rule="nonzero" opacity="1" stroke="none" />
    <path d="M348.448 70.1034L295.534 70.1034L295.534 17.1901L348.448 17.1901L348.448 70.1034Z" fill="#60cf4d"
      fill-rule="nonzero" opacity="1" stroke="none" />
    <path d="M348.448 141.914L295.534 141.914L295.534 89.0008L348.448 89.0008L348.448 141.914Z" fill="#60cf4d"
      fill-rule="nonzero" opacity="1" stroke="none" />
    <path d="M348.448 213.725L295.534 213.725L295.534 160.811L348.448 160.811L348.448 213.725Z" fill="#60cf4d"
      fill-rule="nonzero" opacity="1" stroke="none" />
    <path d="M420.266 79.1168L367.351 79.1168L367.351 26.2021L420.266 26.2021L420.266 79.1168Z" fill="#60cf4d"
      fill-rule="nonzero" opacity="1" stroke="none" />
    <path d="M420.266 150.929L367.351 150.929L367.351 98.0141L420.266 98.0141L420.266 150.929Z" fill="#60cf4d"
      fill-rule="nonzero" opacity="1" stroke="none" />
    <path d="M420.266 222.738L367.351 222.738L367.351 169.825L420.266 169.825L420.266 222.738Z" fill="#60cf4d"
      fill-rule="nonzero" opacity="1" stroke="none" />
    <path d="M312.612 288.023L259.698 288.023L259.698 235.109L312.612 235.109L312.612 288.023Z" fill="#60cf4d"
      fill-rule="nonzero" opacity="1" stroke="none" />
    <path d="M384.091 304.212L332.98 290.518L346.675 239.407L397.786 253.102L384.091 304.212Z" fill="#60cf4d"
      fill-rule="nonzero" opacity="1" stroke="none" />
    <path d="M459.193 322.086L413.369 295.629L439.825 249.805L485.649 276.262L459.193 322.086Z" fill="#60cf4d"
      fill-rule="nonzero" opacity="1" stroke="none" />
  </g>
  <g id="oled" vectornator:layerName="oled">
    <path
      d="M506.204 29.0021L506.204 251.062C506.204 252.517 504.63 253.425 503.37 252.698L432.62 211.867C432.036 211.531 431.676 210.907 431.676 210.231L431.676 29.0115C431.676 27.9675 432.522 27.1208 433.566 27.1208L504.314 27.1115C505.358 27.1115 506.204 27.9581 506.204 29.0021Z"
      fill="#eb493a" fill-rule="nonzero" opacity="1" stroke="none" />
  </g>
  <g id="oled-screw" vectornator:layerName="oled-screw">
    <path
      d="M445.844 206.58C445.844 208.878 443.982 210.738 441.686 210.738C439.389 210.738 437.529 208.878 437.529 206.58C437.529 204.284 439.389 202.423 441.686 202.423C443.982 202.423 445.844 204.284 445.844 206.58Z"
      fill="#60cf4d" fill-rule="nonzero" opacity="1" stroke="none" />
    <path
      d="M500.389 238.786C500.389 241.082 498.528 242.943 496.232 242.943C493.936 242.943 492.074 241.082 492.074 238.786C492.074 236.489 493.936 234.629 496.232 234.629C498.528 234.629 500.389 236.489 500.389 238.786Z"
      fill="#60cf4d" fill-rule="nonzero" opacity="1" stroke="none" />
  </g>
</svg>
