<?xml version="1.0" encoding="UTF-8" standalone="no"?>
<!DOCTYPE svg PUBLIC "-//W3C//DTD SVG 1.1//EN" "http://www.w3.org/Graphics/SVG/1.1/DTD/svg11.dtd">
<svg width="100%" height="100%" viewBox="0 0 134 92" version="1.1" xmlns="http://www.w3.org/2000/svg" xmlns:xlink="http://www.w3.org/1999/xlink" xml:space="preserve" xmlns:serif="http://www.serif.com/" style="fill-rule:evenodd;clip-rule:evenodd;stroke-linejoin:round;stroke-miterlimit:2;">
    <g id="bottom">
        <path id="path354" d="M20.86,6.602L20.86,5.352L20.858,5.354C20.858,5.078 21.081,4.854 21.358,4.854L21.358,4.851L39.365,4.851L39.364,4.854C39.64,4.854 39.864,4.629 39.864,4.353L39.866,4.351L39.866,2.852L39.864,2.853C39.864,2.577 40.088,2.353 40.365,2.353L40.366,2.351L58.372,2.351L58.371,2.353L58.371,2.353C58.647,2.353 58.871,2.128 58.871,1.852L58.872,1.851L58.872,0.6L58.871,0.602C58.871,0.326 59.095,0.102 59.371,0.102L59.373,0.1L76.379,0.1L76.378,0.102C76.654,0.102 76.878,0.326 76.878,0.602L76.879,0.6L76.879,1.851L76.878,1.852C76.878,2.129 77.102,2.353 77.378,2.353L77.38,2.351L95.385,2.351L95.384,2.353C95.66,2.353 95.885,2.577 95.885,2.853L95.886,2.852L95.886,6.602L95.884,6.604C95.884,6.881 96.109,7.105 96.385,7.104L96.386,7.103L133.4,7.103L133.398,7.104C133.674,7.104 133.898,7.328 133.898,7.604L133.9,7.603L133.9,62.873L133.898,62.874C133.898,63.151 133.674,63.374 133.398,63.374L133.4,63.374L78.378,63.374L78.378,63.374C78.246,63.374 78.118,63.427 78.025,63.521L78.025,63.518L67.478,77.981L67.478,77.983C67.384,78.077 67.257,78.13 67.124,78.13L67.125,78.129L30.442,82.9L30.44,82.902C30.219,82.924 29.999,82.967 29.786,83.032L29.786,83.03L15.488,91.293L15.486,91.296C14.851,91.724 13.989,91.556 13.561,90.921C13.56,90.919 13.559,90.918 13.558,90.916L13.56,90.915L0.327,67.975L0.327,67.974C0.175,67.708 0.096,67.407 0.1,67.101L0.101,67.099L0.101,7.603L0.1,7.604C0.1,7.328 0.324,7.105 0.6,7.104L0.601,7.103L20.359,7.103L20.358,7.104C20.634,7.104 20.858,6.88 20.858,6.604" style="fill:rgb(0,0,255);fill-rule:nonzero;"/>
    </g>
    <g id="top">
        <path d="M1.583,67.501C1.581,67.502 1.58,67.503 1.578,67.504C0.943,67.932 0.775,68.794 1.203,69.429L1.204,69.429L13.558,90.884L13.556,90.885C13.557,90.887 13.558,90.888 13.559,90.89C13.987,91.525 14.849,91.693 15.484,91.265L15.486,91.262L29.779,83.002L29.778,83.004C29.992,82.939 30.211,82.896 30.433,82.874L30.434,82.873L67.104,78.103L67.103,78.104C67.236,78.104 67.363,78.051 67.457,77.957L67.457,77.955L78.001,63.497L78,63.5C78.094,63.406 78.221,63.353 78.353,63.353L133.355,63.353L133.353,63.353C133.629,63.353 133.853,63.13 133.853,62.854L133.855,62.852L133.855,7.603L133.853,7.604C133.853,7.328 133.63,7.104 133.353,7.104L133.355,7.102L96.355,7.102L96.353,7.104C96.077,7.104 95.853,6.88 95.853,6.604L95.854,6.602L95.854,2.852L95.853,2.853C95.853,2.578 95.63,2.354 95.353,2.354L95.354,2.352L77.356,2.352L77.353,2.354C77.077,2.354 76.854,2.13 76.853,1.854L76.855,1.852L76.855,0.602L76.853,0.604C76.853,0.328 76.63,0.104 76.354,0.104L76.355,0.102L59.355,0.102L59.353,0.104C59.077,0.104 58.853,0.328 58.853,0.604L58.854,0.602L58.854,1.852L58.853,1.854C58.853,2.13 58.63,2.354 58.353,2.354L58.354,2.352L40.355,2.352L40.353,2.354C40.077,2.354 39.853,2.578 39.853,2.853L39.855,2.852L39.855,4.351L39.853,4.354C39.853,4.63 39.629,4.854 39.354,4.854L39.354,4.852L21.354,4.852L21.353,4.854C21.077,4.854 20.854,5.078 20.854,5.354L20.856,5.352L20.858,55.913L20.856,55.914C20.848,56.178 20.718,56.424 20.504,56.579L20.505,56.579L1.585,67.498" style="fill:rgb(64,64,64);fill-rule:nonzero;"/>
    </g>
    <g id="key">
        <rect x="117.845" y="9.225" width="14" height="14" style="fill:rgb(26,26,26);"/>
        <rect x="117.845" y="28.225" width="14" height="14" style="fill:rgb(26,26,26);"/>
        <rect x="117.845" y="47.225" width="14" height="14" style="fill:rgb(26,26,26);"/>
        <rect x="98.846" y="9.224" width="14" height="14" style="fill:rgb(26,26,26);"/>
        <rect x="98.846" y="28.224" width="14" height="14" style="fill:rgb(26,26,26);"/>
        <rect x="98.846" y="47.224" width="14" height="14" style="fill:rgb(26,26,26);"/>
        <rect x="79.846" y="4.479" width="14" height="14" style="fill:rgb(26,26,26);"/>
        <rect x="79.846" y="23.479" width="14" height="14" style="fill:rgb(26,26,26);"/>
        <rect x="79.846" y="42.48" width="14" height="14" style="fill:rgb(26,26,26);"/>
        <rect x="60.844" y="2.101" width="14" height="14" style="fill:rgb(26,26,26);"/>
        <rect x="60.844" y="21.101" width="14" height="14" style="fill:rgb(26,26,26);"/>
        <rect x="60.844" y="40.101" width="14" height="14" style="fill:rgb(26,26,26);"/>
        <rect x="41.843" y="4.475" width="14" height="14" style="fill:rgb(26,26,26);"/>
        <rect x="41.843" y="23.475" width="14" height="14" style="fill:rgb(26,26,26);"/>
        <rect x="41.843" y="42.475" width="14" height="14" style="fill:rgb(26,26,26);"/>
        <rect x="22.841" y="6.86" width="14" height="14" style="fill:rgb(26,26,26);"/>
        <rect x="22.841" y="25.86" width="14" height="14" style="fill:rgb(26,26,26);"/>
        <rect x="22.841" y="44.86" width="14" height="14" style="fill:rgb(26,26,26);"/>
        <rect x="51.324" y="62.133" width="14" height="14" style="fill:rgb(26,26,26);"/>
        <path d="M45.935,76.793L32.412,80.417L28.789,66.894L42.312,63.27L45.935,76.793Z" style="fill:rgb(26,26,26);"/>
        <path d="M24.666,78.145L12.542,85.146L5.542,73.022L17.666,66.021L24.666,78.145Z" style="fill:rgb(26,26,26);"/>
    </g>
    <g id="oled">
        <path d="M0.103,7.605L0.103,66.359C0.103,66.744 0.52,66.984 0.853,66.792L19.572,55.989C19.726,55.899 19.822,55.735 19.822,55.556L19.822,7.608C19.822,7.332 19.598,7.108 19.322,7.108L0.603,7.105C0.327,7.105 0.103,7.329 0.103,7.605Z" style="fill:rgb(128,128,128);fill-rule:nonzero;"/>
    </g>
    <g id="oled-screw">
        <path d="M16.074,54.59C16.074,55.197 16.567,55.69 17.174,55.69C17.781,55.69 18.274,55.197 18.274,54.59C18.274,53.983 17.781,53.49 17.174,53.49C16.567,53.49 16.074,53.983 16.074,54.59Z" style="fill:rgb(26,26,26);"/>
        <path d="M1.642,63.111C1.642,63.718 2.135,64.211 2.742,64.211C3.349,64.211 3.842,63.718 3.842,63.111C3.842,62.504 3.349,62.011 2.742,62.011C2.135,62.011 1.642,62.504 1.642,63.111Z" style="fill:rgb(26,26,26);"/>
    </g>
    <g id="screw">
        <circle cx="39.355" cy="22.102" r="1.098" style="fill:rgb(235,235,235);"/>
        <circle cx="115.351" cy="25.848" r="1.098" style="fill:rgb(235,235,235);"/>
        <circle cx="115.351" cy="44.598" r="1.098" style="fill:rgb(235,235,235);"/>
        <circle cx="72.105" cy="61.853" r="1.098" style="fill:rgb(235,235,235);"/>
        <circle cx="25.601" cy="69.599" r="1.098" style="fill:rgb(235,235,235);"/>
    </g>
</svg>
